Main DVD Cover
 
http://picturestack.com/170/903/HAJ002522nop.jpg

Complete name                    :College Rules Students At The Ranch HQ Quality XXX Royal Dev
Format                           : MPEG-4
Format profile                   : Base Media
Codec ID                         : isom
File size                        : 656 MiB
Duration                         : 29mn 35s
Overall bit rate                 : 3 101 Kbps
Writing application              : Lavf53.4.0

Video
ID                               : 1
Format                           : AVC
Format/Info                      : Advanced Video Codec
Format profile                   : High@L3.1
Format settings, CABAC           : Yes
Format settings, ReFrames        : 4 frames
Format settings, GOP             : M=1, N=60
Codec ID                         : avc1
Codec ID/Info                    : Advanced Video Coding
Duration                         : 29mn 35s
Bit rate mode                    : Variable
Bit rate                         : 3 000 Kbps
Width                            : 1 280 pixels
Height                           : 720 pixels
Display aspect ratio             : 16:9
Frame rate mode                  : Constant
Frame rate                       : 29.970 fps
Color space                      : YUV
Chroma subsampling               : 4:2:0
Bit depth                        : 8 bits
Scan type                        : Progressive
Bits/(Pixel*Frame)               : 0.109
Stream size                      : 635 MiB (97%)
Writing library                  : x264 core 116 r2019 9cc407d
Language                         : English

Audio
ID                               : 2
Format                           : AAC
Format/Info                      : Advanced Audio Codec
Format profile                   : LC
Codec ID                         : 40
Duration                         : 29mn 35s
Bit rate mode                    : Constant
Bit rate                         : 96.0 Kbps
Channel(s)                       : 2 channels
Channel positions                : Front: L R
Sampling rate                    : 44.1 KHz
Compression mode                 : Lossy
Stream size                      : 20.3 MiB (3%)
Language                         : English

Screen Shots...
 
http://picturestack.com/170/903/wmaStudentsAtmjj.jpg

